<mxfile host="app.diagrams.net" agent="Mozilla/5.0 (Windows NT 10.0; Win64; x64) AppleWebKit/537.36 (KHTML, like Gecko) Chrome/140.0.0.0 Safari/537.36" version="28.2.5">
  <diagram name="Trang-1" id="pezrvyZm-KNsXFuf9iPR">
    <mxGraphModel dx="872" dy="473" grid="1" gridSize="10" guides="1" tooltips="1" connect="1" arrows="1" fold="1" page="1" pageScale="1" pageWidth="827" pageHeight="1169" math="0" shadow="0">
      <root>
        <mxCell id="0" />
        <mxCell id="1" parent="0" />
        <mxCell id="pd5-z9nGmMEOFNAPrWOp-10" style="edgeStyle=orthogonalEdgeStyle;rounded=0;orthogonalLoop=1;jettySize=auto;html=1;exitX=0.5;exitY=1;exitDx=0;exitDy=0;" edge="1" parent="1" source="pd5-z9nGmMEOFNAPrWOp-1" target="pd5-z9nGmMEOFNAPrWOp-2">
          <mxGeometry relative="1" as="geometry" />
        </mxCell>
        <mxCell id="pd5-z9nGmMEOFNAPrWOp-1" value="Start" style="ellipse;whiteSpace=wrap;html=1;" vertex="1" parent="1">
          <mxGeometry x="340" y="40" width="120" height="80" as="geometry" />
        </mxCell>
        <mxCell id="pd5-z9nGmMEOFNAPrWOp-11" style="edgeStyle=orthogonalEdgeStyle;rounded=0;orthogonalLoop=1;jettySize=auto;html=1;exitX=0.5;exitY=1;exitDx=0;exitDy=0;entryX=0.5;entryY=0;entryDx=0;entryDy=0;" edge="1" parent="1" source="pd5-z9nGmMEOFNAPrWOp-2" target="pd5-z9nGmMEOFNAPrWOp-4">
          <mxGeometry relative="1" as="geometry" />
        </mxCell>
        <mxCell id="pd5-z9nGmMEOFNAPrWOp-2" value="Nhập số nguyên n 3 chữ số" style="shape=parallelogram;perimeter=parallelogramPerimeter;whiteSpace=wrap;html=1;fixedSize=1;" vertex="1" parent="1">
          <mxGeometry x="340" y="160" width="120" height="60" as="geometry" />
        </mxCell>
        <mxCell id="pd5-z9nGmMEOFNAPrWOp-12" style="edgeStyle=orthogonalEdgeStyle;rounded=0;orthogonalLoop=1;jettySize=auto;html=1;exitX=0.5;exitY=1;exitDx=0;exitDy=0;entryX=0.5;entryY=0;entryDx=0;entryDy=0;" edge="1" parent="1" source="pd5-z9nGmMEOFNAPrWOp-4" target="pd5-z9nGmMEOFNAPrWOp-5">
          <mxGeometry relative="1" as="geometry" />
        </mxCell>
        <mxCell id="pd5-z9nGmMEOFNAPrWOp-4" value="&lt;span style=&quot;font-family: Arial, sans-serif; text-align: left; white-space-collapse: preserve; background-color: rgb(255, 255, 255);&quot;&gt;&lt;font&gt;d1 = n % 10&lt;/font&gt;&lt;/span&gt;" style="rounded=0;whiteSpace=wrap;html=1;" vertex="1" parent="1">
          <mxGeometry x="340" y="260" width="120" height="60" as="geometry" />
        </mxCell>
        <mxCell id="pd5-z9nGmMEOFNAPrWOp-13" style="edgeStyle=orthogonalEdgeStyle;rounded=0;orthogonalLoop=1;jettySize=auto;html=1;exitX=0.5;exitY=1;exitDx=0;exitDy=0;" edge="1" parent="1" source="pd5-z9nGmMEOFNAPrWOp-5" target="pd5-z9nGmMEOFNAPrWOp-6">
          <mxGeometry relative="1" as="geometry" />
        </mxCell>
        <mxCell id="pd5-z9nGmMEOFNAPrWOp-5" value="&lt;span style=&quot;font-family: Arial, sans-serif; text-align: left; white-space-collapse: preserve; background-color: rgb(255, 255, 255);&quot;&gt;&lt;font&gt;d2 = (n / 10) % 10&lt;/font&gt;&lt;/span&gt;" style="rounded=0;whiteSpace=wrap;html=1;" vertex="1" parent="1">
          <mxGeometry x="340" y="360" width="120" height="60" as="geometry" />
        </mxCell>
        <mxCell id="pd5-z9nGmMEOFNAPrWOp-14" style="edgeStyle=orthogonalEdgeStyle;rounded=0;orthogonalLoop=1;jettySize=auto;html=1;exitX=0.5;exitY=1;exitDx=0;exitDy=0;" edge="1" parent="1" source="pd5-z9nGmMEOFNAPrWOp-6" target="pd5-z9nGmMEOFNAPrWOp-7">
          <mxGeometry relative="1" as="geometry" />
        </mxCell>
        <mxCell id="pd5-z9nGmMEOFNAPrWOp-6" value="&lt;font&gt;&lt;span style=&quot;color: rgb(0, 0, 0); font-family: Arial, sans-serif; font-style: normal; font-variant-ligatures: normal; font-variant-caps: normal; font-weight: 400; letter-spacing: normal; orphans: 2; text-indent: 0px; text-transform: none; widows: 2; word-spacing: 0px; -webkit-text-stroke-width: 0px; white-space: pre-wrap; background-color: rgb(255, 255, 255); text-decoration-thickness: initial; text-decoration-style: initial; text-decoration-color: initial; float: none; display: inline !important;&quot;&gt;d3 = n / 100&lt;/span&gt;&lt;br&gt;&lt;/font&gt;" style="rounded=0;whiteSpace=wrap;html=1;" vertex="1" parent="1">
          <mxGeometry x="340" y="460" width="120" height="60" as="geometry" />
        </mxCell>
        <mxCell id="pd5-z9nGmMEOFNAPrWOp-17" style="edgeStyle=orthogonalEdgeStyle;rounded=0;orthogonalLoop=1;jettySize=auto;html=1;exitX=0.5;exitY=1;exitDx=0;exitDy=0;entryX=0.5;entryY=0;entryDx=0;entryDy=0;" edge="1" parent="1" source="pd5-z9nGmMEOFNAPrWOp-7" target="pd5-z9nGmMEOFNAPrWOp-8">
          <mxGeometry relative="1" as="geometry" />
        </mxCell>
        <mxCell id="pd5-z9nGmMEOFNAPrWOp-7" value="&lt;span style=&quot;box-sizing: border-box; margin: 0px; padding: 0px; font-family: Arial, sans-serif; font-size: 16px; font-variant-numeric: normal; font-variant-east-asian: normal; font-variant-alternates: normal; font-variant-position: normal; font-variant-emoji: normal; text-align: start; white-space-collapse: preserve; background-color: rgb(255, 255, 255); vertical-align: baseline;&quot;&gt;&amp;nbsp;&lt;/span&gt;&lt;span style=&quot;box-sizing: border-box; margin: 0px; padding: 0px; font-family: Arial, sans-serif; font-variant-numeric: normal; font-variant-east-asian: normal; font-variant-alternates: normal; font-variant-position: normal; font-variant-emoji: normal; text-align: start; white-space-collapse: preserve; background-color: rgb(255, 255, 255); vertical-align: baseline;&quot;&gt;&lt;span style=&quot;box-sizing: border-box; margin: 0px; padding: 0px;&quot;&gt;&lt;font&gt;reverse = d1 * 100 + d2 * 10 + d3&lt;/font&gt;&lt;/span&gt;&lt;/span&gt;" style="rounded=0;whiteSpace=wrap;html=1;" vertex="1" parent="1">
          <mxGeometry x="340" y="560" width="120" height="60" as="geometry" />
        </mxCell>
        <mxCell id="pd5-z9nGmMEOFNAPrWOp-16" style="edgeStyle=orthogonalEdgeStyle;rounded=0;orthogonalLoop=1;jettySize=auto;html=1;exitX=0.5;exitY=1;exitDx=0;exitDy=0;entryX=0.5;entryY=0;entryDx=0;entryDy=0;" edge="1" parent="1" source="pd5-z9nGmMEOFNAPrWOp-8" target="pd5-z9nGmMEOFNAPrWOp-9">
          <mxGeometry relative="1" as="geometry" />
        </mxCell>
        <mxCell id="pd5-z9nGmMEOFNAPrWOp-8" value="reverse" style="shape=parallelogram;perimeter=parallelogramPerimeter;whiteSpace=wrap;html=1;fixedSize=1;" vertex="1" parent="1">
          <mxGeometry x="340" y="660" width="120" height="60" as="geometry" />
        </mxCell>
        <mxCell id="pd5-z9nGmMEOFNAPrWOp-9" value="End" style="ellipse;whiteSpace=wrap;html=1;" vertex="1" parent="1">
          <mxGeometry x="340" y="760" width="120" height="80" as="geometry" />
        </mxCell>
      </root>
    </mxGraphModel>
  </diagram>
</mxfile>
